<?xml version="1.0" encoding="utf-8"?>
<!-- Generator: Adobe Illustrator 22.1.0, SVG Export Plug-In . SVG Version: 6.00 Build 0)  -->
<svg version="1.1" id="Layer_1" xmlns="http://www.w3.org/2000/svg" xmlns:xlink="http://www.w3.org/1999/xlink" x="0px" y="0px"
	 viewBox="0 0 528 114" style="enable-background:new 0 0 528 114;" xml:space="preserve">
<style type="text/css">
	.st0{fill:#6E7071;}
	.st1{fill:#F7BE00;}
	.st2{fill:#E1251B;}
	.st3{fill:#00BED6;}
	.st4{fill:#008C95;}
	.st5{fill:#059698;}
	.st6{fill:#D2242A;}
	.st7{fill:#FFFFFF;}
</style>
<g>
	<path class="st7" d="M59.5,48L35.4,33.8c-0.5-0.3-1-0.4-1.5-0.4c-0.5,0-1,0.1-1.4,0.4c-0.9,0.5-1.5,1.5-1.5,2.5v7.7
		c0,0.7,0.4,1.3,0.9,1.6L62,63.4V52.4C62,50.6,61.1,48.9,59.5,48z M59.5,30.3l-11.7-6.9c-0.5-0.3-1-0.4-1.5-0.4
		c-0.5,0-1,0.1-1.5,0.4c-0.9,0.5-1.5,1.5-1.5,2.5v7.7c0,0.7,0.4,1.3,0.9,1.6L62,45.7V34.7C62,32.9,61.1,31.2,59.5,30.3z M59.5,65.7
		L28.6,47.4c-0.5-0.3-1-0.4-1.5-0.4c-0.5,0-1,0.1-1.4,0.4c-0.9,0.5-1.5,1.5-1.5,2.5v7.7c0,0.7,0.4,1.3,0.9,1.6L62,81V70.1
		C62,68.3,61.1,66.6,59.5,65.7z M65.2,52.4v10.9l30.1-17.7c0.6-0.3,0.9-1,0.9-1.6v-7.7c0-1.1-0.5-2-1.5-2.5c-0.5-0.3-1-0.4-1.4-0.4
		c-0.5,0-1,0.1-1.5,0.4L67.7,48C66.2,48.9,65.2,50.6,65.2,52.4z M65.2,34.7v10.9l17.7-10.4c0.6-0.3,0.9-1,0.9-1.6V26
		c0-1.1-0.5-2-1.5-2.5c-0.5-0.3-1-0.4-1.5-0.4c-0.5,0-1,0.1-1.5,0.4l-11.7,6.9C66.2,31.2,65.2,32.9,65.2,34.7z M65.2,70.1V81
		l36.9-21.8c0.6-0.3,0.9-1,0.9-1.6v-7.7c0-1.1-0.5-2-1.5-2.5c-0.5-0.3-1-0.4-1.4-0.4c-0.5,0-1,0.1-1.5,0.4L67.7,65.7
		C66.2,66.6,65.2,68.3,65.2,70.1z M74.2,22.4c0-0.3-0.2-0.6-0.4-0.8l-9.3-5.4c-0.3-0.2-0.6-0.3-0.9-0.3c-0.3,0-0.7,0.1-1,0.3
		l-9.2,5.4C53.1,21.8,53,22,53,22.4c0,0.3,0.2,0.6,0.4,0.8l9.2,5.3c0.6,0.3,1.3,0.3,1.9,0l9.3-5.3C74,23,74.2,22.7,74.2,22.4z
		 M70.6,100.9v-4c0-0.9,0.5-1.7,1.2-2.1L95.3,81c0.6-0.3,0.9-1,0.9-1.6l0-7.6c0-1.1-0.6-2.2-1.5-2.7c-0.4-0.2-0.9-0.4-1.4-0.4
		c-0.5,0-1,0.1-1.5,0.4L67.7,83.3c-1.6,0.9-2.5,2.6-2.5,4.4v21.8c28.3-0.8,51-24.1,51-52.6c0-29.1-23.6-52.6-52.6-52.6S11,28,11,57
		c0,28.5,22.7,51.8,51,52.6l0-21.8c0-1.8-1-3.5-2.5-4.4L35.4,69.2c-0.5-0.3-1-0.4-1.5-0.4c-0.5,0-1,0.1-1.4,0.4
		c-1,0.5-1.5,1.6-1.5,2.7l0,7.6c0,0.7,0.4,1.3,0.9,1.6l23.4,13.8c0.8,0.4,1.2,1.3,1.2,2.1v4c0,1.6-1.5,2.8-3,2.4
		C32.2,98.8,16.2,79.8,16.2,57c0-26.2,21.2-47.4,47.4-47.4S111,30.8,111,57c0,22.7-16,41.8-37.4,46.4
		C72.1,103.7,70.6,102.5,70.6,100.9z"/>
	<path class="st7" d="M375.9,52.8v-21h-25.4v21h-4.6V7.5h2.7c1.1,0,1.9,0.9,1.9,1.9v18.2h25.4V9.5c0-1.1,0.9-1.9,1.9-1.9h2.7v45.3
		H375.9z M411.6,44c-1.7,4.1-5,6.2-9.5,6.2c-6,0-10.4-4.5-10.6-10.6l0-1h24.2c0-0.3,0-0.7,0-1c0-9.9-5.4-15.8-14.4-15.8
		c-8,0-14.4,7-14.4,15.9c0,11.1,7.9,16.1,15.2,16.1c6.1,0,11.1-3.3,13.2-8.6L411.6,44z M391.7,34.4c0.3-4.4,3.8-9.1,9.7-9.1
		c5.7,0,9.6,3.6,9.7,9.1l0,1h-19.5L391.7,34.4z M442.5,48.1v2.2c0,0.7,0.1,1.8,0.2,2.5h4.2c-0.1-1-0.2-2.4-0.2-4.3v-16
		c0-6.8-4.5-10.8-12.4-10.8c-6.2,0-11.1,3.5-12,8.7l4.1,1c0.8-3.9,3.8-6.2,8-6.2c5.8,0,7.9,3.4,7.9,6.7c0,1.1-0.4,2.9-3.3,3.3
		l-8.6,1.3c-2.7,0.4-8.9,2-8.9,8.8c0,4.2,3.4,8.6,9.8,8.6C438.4,53.8,441,50,442.5,48.1z M432.1,50.4c-3.8,0-6.1-2.8-6.1-5.6
		c0-3.1,2-5.2,5.5-5.7l10.9-1.6V40C442.3,46.7,438.6,50.4,432.1,50.4z M457.6,7.5h2.4v45.3h-4.4V9.5C455.7,8.4,456.6,7.5,457.6,7.5z
		 M472.6,45V26.5h-6.1v-3.8h0.8c3.7,0,5.9-2.2,5.9-5.9v-4.2h3.8v10.1h6.9v3.8h-6.9V44c0,3.6,1.8,5.3,5.4,5.3c0.4,0,1,0,1.5-0.1v3.5
		c-0.7,0.2-1.9,0.4-3.3,0.4C475.5,53.1,472.6,50.1,472.6,45z M504.2,25.5c-4.9,0-8.2,3.7-8.4,9.4v17.9h-4.4V9.5
		c0-1.1,0.9-1.9,1.9-1.9h2.4v19.7c0.7-0.6,3.1-5.4,10.7-5.4c6.6,0,10.5,4.4,10.5,11.7v19.3h-4.4V34.5
		C512.6,28.7,509.7,25.5,504.2,25.5z M166.2,42.4h-18.4l-2.8,7.8c-0.6,1.5-2,2.6-3.7,2.6h-6.6l17.4-45.3h10.2l17.2,45.3h-6.9
		c-1.6,0-3.1-1-3.7-2.6L166.2,42.4z M150.8,34.4h12.5L157,17.3L150.8,34.4z M192.3,21.4h6.3v7.5h-6.3v13.2c0,2.7,1.3,3.6,3.7,3.6
		c1,0,2.2-0.1,2.6-0.3v7c-0.8,0.3-2.3,0.8-4.8,0.8c-6.1,0-10-3.6-10-9.7V28.9h-5.7v-7.5h1.6c3.3,0,4.9-2.2,4.9-5V12h7.7V21.4z
		 M224.8,29.8c-1-0.2-1.8-0.3-2.6-0.3c-4.3,0-8.1,2.1-8.1,8.9v14.4h-8.5V21.4h8.2V26c1.9-4.2,6.3-4.9,8.9-4.9c0.7,0,1.3,0.1,2,0.1
		V29.8z M230,52.8V25.3c0-2.2,1.7-3.9,3.9-3.9h4.6v31.4H230z M266.7,49.4c-1.7,2.9-5.4,4.2-8.7,4.2c-7.6,0-11.9-5.6-11.9-12.4V21.4
		h4.6c2.2,0,3.9,1.7,3.9,3.9v14.2c0,3.5,1.8,6.3,5.7,6.3c3.8,0,5.9-2.6,5.9-6.2V21.4h8.5v25.7c0,2.4,0.2,4.6,0.3,5.7h-8.1
		C266.8,52.2,266.7,50.7,266.7,49.4z M281.9,52.8V21.4h4.3c2.1,0,3.8,1.7,3.8,3.8v0c1.7-3.1,5.7-4.7,9.2-4.7c4.3,0,7.7,1.9,9.3,5.2
		c2.5-3.8,5.8-5.2,10-5.2c5.8,0,11.4,3.5,11.4,11.9v20.4h-8.2V34.1c0-3.4-1.7-5.9-5.6-5.9c-3.6,0-5.8,2.8-5.8,6.2v18.4h-8.4V34.1
		c0-3.4-1.7-5.9-5.6-5.9c-3.7,0-5.9,2.7-5.9,6.2v18.4H281.9z M238.5,7.9v4.6c0,2.2-1.7,3.9-3.9,3.9H230v-4.6c0-2.2,1.7-3.9,3.9-3.9
		H238.5z"/>
	<g>
		<path class="st7" d="M134.4,104.7V71h6.5v27.4h15v6.3H134.4z"/>
		<path class="st7" d="M182.2,98c-1.2,4-4.9,7.4-10.6,7.4c-6.4,0-12.1-4.6-12.1-12.5c0-7.5,5.5-12.3,11.5-12.3
			c7.2,0,11.5,4.6,11.5,12.1c0,0.9-0.1,1.9-0.1,1.9h-16.7c0.1,3.1,2.8,5.3,5.9,5.3c2.9,0,4.6-1.5,5.3-3.6L182.2,98z M176.3,90.3
			c-0.1-2.3-1.6-4.6-5.2-4.6c-3.3,0-5.1,2.5-5.2,4.6H176.3z"/>
		<path class="st7" d="M200.4,104.7h-6.3l-9.5-23.3h6.9l5.8,15.7l5.6-15.7h6.6L200.4,104.7z"/>
		<path class="st7" d="M233.5,104.7h-6.3V81.3h6.1v2.9c1.4-2.4,4.2-3.5,6.7-3.5c5.8,0,8.4,4.1,8.4,9.3v14.7h-6.3V91
			c0-2.6-1.3-4.7-4.3-4.7c-2.8,0-4.4,2.1-4.4,4.8V104.7z"/>
		<path class="st7" d="M276.6,98c-1.2,4-4.9,7.4-10.6,7.4c-6.4,0-12.1-4.6-12.1-12.5c0-7.5,5.5-12.3,11.5-12.3
			c7.2,0,11.5,4.6,11.5,12.1c0,0.9-0.1,1.9-0.1,1.9h-16.7c0.1,3.1,2.8,5.3,5.9,5.3c2.9,0,4.6-1.5,5.3-3.6L276.6,98z M270.7,90.3
			c-0.1-2.3-1.6-4.6-5.2-4.6c-3.3,0-5.1,2.5-5.2,4.6H270.7z"/>
		<path class="st7" d="M293.1,87.9c0-10.7,8.1-17.6,17.1-17.6c9.3,0,14.1,5.7,15.4,11.2l-6.2,1.9c-0.8-3.2-3.4-6.8-9.3-6.8
			c-5,0-10.3,3.6-10.3,11.2c0,7.2,5,11.1,10.4,11.1c5.7,0,8.5-3.7,9.4-6.9l6.1,1.9c-1.3,5.2-6.1,11.4-15.6,11.4
			C300.9,105.4,293.1,98.6,293.1,87.9z"/>
		<path class="st7" d="M337.6,104.7h-6.3V70.3h6.3v13c1.5-1.8,4.1-2.6,6.3-2.6c5.9,0,8.7,4.1,8.7,9.3v14.7h-6.3V91
			c0-2.6-1.3-4.7-4.3-4.7c-2.7,0-4.2,2-4.4,4.6V104.7z"/>
		<path class="st7" d="M372.8,104.7V70.3h6.3v34.4H372.8z"/>
		<path class="st7" d="M408.8,100.4c0,1.6,0.1,3.3,0.2,4.2h-6c-0.1-0.5-0.2-1.6-0.2-2.7c-1,1.9-3.4,3.3-6.5,3.3
			c-6.6,0-11.4-5.2-11.4-12.3c0-6.8,4.6-12.2,11.2-12.2c4,0,5.9,1.7,6.6,2.9V70.3h6.2V100.4z M396.9,99.6c3.2,0,5.7-2.5,5.7-6.7
			c0-4.2-2.5-6.5-5.7-6.5s-5.8,2.4-5.8,6.5S393.6,99.6,396.9,99.6z"/>
		<path class="st7" d="M430.2,87.6c-0.7-0.1-1.3-0.2-1.9-0.2c-3.2,0-6,1.6-6,6.6v10.7h-6.3V81.3h6.1v3.5c1.4-3.1,4.7-3.7,6.6-3.7
			c0.5,0,1,0,1.5,0.1V87.6z"/>
		<path class="st7" d="M456.2,98c-1.2,4-4.9,7.4-10.6,7.4c-6.4,0-12.1-4.6-12.1-12.5c0-7.5,5.5-12.3,11.5-12.3
			c7.2,0,11.5,4.6,11.5,12.1c0,0.9-0.1,1.9-0.1,1.9h-16.7c0.1,3.1,2.8,5.3,5.9,5.3c2.9,0,4.6-1.5,5.3-3.6L456.2,98z M450.3,90.3
			c-0.1-2.3-1.6-4.6-5.2-4.6c-3.3,0-5.1,2.5-5.2,4.6H450.3z"/>
		<path class="st7" d="M468.5,104.7h-6.3V81.3h6.1v2.9c1.4-2.4,4.2-3.5,6.7-3.5c5.8,0,8.4,4.1,8.4,9.3v14.7h-6.3V91
			c0-2.6-1.3-4.7-4.3-4.7c-2.8,0-4.4,2.1-4.4,4.8V104.7z"/>
		<path class="st7" d="M503.2,97c0.1,1.9,1.5,3.6,4.3,3.6c2.1,0,3.1-1.1,3.1-2.3c0-1-0.7-1.9-2.5-2.3l-3.1-0.7c-4.5-1-6.5-3.7-6.5-7
			c0-4.2,3.7-7.6,8.7-7.6c6.6,0,8.9,4.2,9.2,6.7l-5.3,1.2c-0.2-1.4-1.2-3.1-3.8-3.1c-1.7,0-3,1-3,2.3c0,1.1,0.9,1.9,2.1,2.1l3.3,0.7
			c4.6,0.9,6.9,3.7,6.9,7.2c0,3.8-2.9,7.7-9.1,7.7c-7,0-9.4-4.6-9.7-7.2L503.2,97z"/>
		<path class="st1" d="M500.5,73.9c-0.3-2.9-2.9-5-5.8-4.7c-2.8,0.3-5,2.9-4.7,5.8c0.2,1.6,1,2.9,2.2,3.8l-2.6,1.9
			c-0.4,0.3-0.7,0.9-0.6,1.4l0.3,3.3l8.6-6.4c0.3-0.2,0.6-0.4,0.9-0.7l0,0c0,0,0,0,0,0C500,77.2,500.6,75.6,500.5,73.9z"/>
		<g>
			<circle class="st2" cx="217.4" cy="74.5" r="6.2"/>
			<path class="st2" d="M217.4,82.6L217.4,82.6c-3,0-5.4,2.4-5.4,5.4v7.1c0,0.8,0.6,1.6,1.4,1.7v7.6h3.5v-6.3c0-0.3,0.2-0.6,0.6-0.6
				s0.6,0.2,0.6,0.6v6.3h3.5v-7.6c0.8-0.2,1.4-0.9,1.4-1.7V88C222.9,85,220.4,82.6,217.4,82.6z"/>
		</g>
		<g>
			<circle class="st3" cx="362.7" cy="74.6" r="6.2"/>
			<path class="st3" d="M362.7,82.7L362.7,82.7c-3,0-5.4,2.4-5.4,5.4v7.1c0,0.8,0.6,1.6,1.4,1.7v7.6h3.5v-6.3c0-0.3,0.2-0.6,0.6-0.6
				s0.6,0.2,0.6,0.6v6.3h3.5V97c0.8-0.2,1.4-0.9,1.4-1.7v-7.1C368.2,85.2,365.7,82.7,362.7,82.7z"/>
		</g>
	</g>
</g>
</svg>
